<svg width="110" height="91" viewBox="0 0 110 91" fill="none" xmlns="http://www.w3.org/2000/svg">
<path d="M6.5566 61.9099L6.55381 61.9071C2.88522 58.2767 0.897827 53.4253 0.897827 48.3002C0.897827 43.1362 2.88466 38.3242 6.55382 34.6933L6.55693 34.6902L37.2595 3.9479L37.2598 3.94756L38.9581 2.24929V23.4431L36.1988 26.2024L17.1336 45.2676C15.4506 46.9506 15.4506 49.6498 17.1336 51.3328C17.9511 52.1503 19.0164 52.5852 20.1663 52.5852C21.3162 52.5852 22.3814 52.1503 23.1989 51.3328L23.1997 51.3321L37.2201 37.272L37.2205 37.2715L72.5208 1.93293V23.1256L36.1591 59.5267L36.1588 59.527L33.776 61.9099C30.0307 65.6552 25.1006 67.5289 20.1663 67.5289C15.232 67.5289 10.3019 65.6552 6.5566 61.9099ZM74.0208 88.7904V67.5966L92.8663 48.7511C94.5494 47.068 94.5494 44.3689 92.8663 42.6858C92.0488 41.8683 90.9836 41.4335 89.8337 41.4335C88.6838 41.4335 87.6185 41.8683 86.801 42.6858L86.8003 42.6866L72.7798 56.7467L72.7794 56.7471L40.4978 89.067V67.8744L73.8408 34.4919L73.8411 34.4916L76.224 32.1088C79.9693 28.3635 84.8994 26.4897 89.8337 26.4897C94.7673 26.4897 99.6967 28.363 103.442 32.1073C107.079 35.783 109.102 40.5988 109.102 45.7582C109.102 50.8798 107.077 55.7339 103.443 59.3679L74.0208 88.7904Z" stroke="white" stroke-width="1.5"/>
</svg>
