<svg width="34" height="34" viewBox="0 0 34 34" fill="none" xmlns="http://www.w3.org/2000/svg">
<path d="M2.09155 15.088H5.33333C7.17428 15.088 8.66667 16.5804 8.66667 18.4213V20.088C8.66667 21.9289 10.1591 23.4213 12 23.4213C13.8409 23.4213 15.3333 24.9137 15.3333 26.7546V31.6631M10.3333 3.31384V5.92131C10.3333 8.22249 12.1988 10.088 14.5 10.088H15.3333C17.1743 10.088 18.6667 11.5804 18.6667 13.4213C18.6667 15.2623 20.1591 16.7546 22 16.7546C23.841 16.7546 25.3333 15.2623 25.3333 13.4213C25.3333 11.5804 26.8257 10.088 28.6667 10.088L30.4408 10.088M22 30.9011V26.7546C22 24.9137 23.4924 23.4213 25.3333 23.4213H30.4408M32 16.7546C32 25.0389 25.2843 31.7546 17 31.7546C8.71573 31.7546 2 25.0389 2 16.7546C2 8.47037 8.71573 1.75464 17 1.75464C25.2843 1.75464 32 8.47037 32 16.7546Z" stroke="#06AEC5" stroke-width="3.33333" stroke-linecap="round" stroke-linejoin="round"/>
</svg>
