<svg width="218" height="38" viewBox="0 0 218 38" fill="none" xmlns="http://www.w3.org/2000/svg">
<g clip-path="url(#clip0_349_756)">
<path d="M30.9918 -0.392029V9.48965L15.4875 25.0108L14.4774 26.0208C12.8277 27.6706 10.6561 28.4955 8.48444 28.4955C6.31283 28.4955 4.14122 27.6706 2.49146 26.0208C0.875379 24.4216 0 22.2836 0 20.0279C0 17.7552 0.875379 15.6341 2.49146 14.0349L15.5043 1.00521L16.7669 -0.257355V9.62432L15.5043 10.8869L7.42389 18.9673C6.83469 19.5565 6.83469 20.4992 7.42389 21.0884C7.71007 21.3746 8.08042 21.5261 8.48444 21.5261C8.88846 21.5261 9.25881 21.3746 9.545 21.0884L15.4875 15.1291L30.9918 -0.392029ZM44.0046 12.9407C42.3549 11.2909 40.1833 10.466 38.0116 10.466C35.84 10.466 33.6684 11.2909 32.0187 12.9407L31.0086 13.9507L16.7837 28.1925V38.0741L31.0086 23.8324L36.9511 17.8731C37.2373 17.5869 37.6076 17.4354 38.0116 17.4354C38.4157 17.4354 38.786 17.5869 39.0722 17.8731C39.6614 18.4623 39.6614 19.405 39.0722 19.9942L30.9918 28.0746V37.9563L44.0046 24.9435C45.6039 23.3442 46.4961 21.2063 46.4961 18.9505C46.4961 16.6779 45.6039 14.5567 44.0046 12.9407Z" fill="url(#paint0_linear_349_756)"/>
<path d="M192.035 23.081V28.1702H186.97V23.081H192.035Z" fill="white"/>
<path d="M195.237 17.9678V14.5272H201.115C207.422 14.5272 209.453 16.1997 209.453 20.0465V28.1941H198.128C194.353 28.1941 193.302 26.9278 193.302 23.8695C193.302 20.835 194.353 19.9271 198.128 19.9271H204.699V19.8076C204.699 18.5174 204.101 17.9917 200.9 17.9917H195.237V17.9678ZM204.699 25.0641V22.5314H199.227C198.224 22.5314 197.889 22.8182 197.889 23.75C197.889 24.7296 198.224 25.088 199.227 25.088H204.699V25.0641Z" fill="white"/>
<path d="M210.696 14.527H216V28.17H210.696V14.527ZM210.863 7.95636H215.761V12.2571H210.863V7.95636Z" fill="white"/>
<path d="M63.3225 22.6748C59.5713 22.6748 58.4961 21.3368 58.4961 18.5652C58.4961 15.8891 59.5235 14.5272 63.3225 14.5272H73.3099V17.8006H64.5889C63.7048 17.8006 63.3464 18.0634 63.3464 18.828C63.3464 19.6165 63.6809 19.9271 64.5889 19.9271H69.0091C72.7603 19.9271 73.8355 21.2651 73.8355 24.0128C73.8355 26.7366 72.8081 28.1702 69.0091 28.1702H58.6395V24.8491H67.7428C68.6268 24.8491 68.9852 24.5624 68.9852 23.75C68.9852 22.9376 68.6985 22.6509 67.7428 22.6509H63.3225V22.6748Z" fill="white"/>
<path d="M89.6051 14.5272L92.09 23.1049L94.5271 14.5272H99.1624L94.9094 28.1702H89.4617L86.5945 18.9714L83.7035 28.1702H78.1841L73.9789 14.5272H78.8532L81.2664 23.081L83.9902 14.5272H89.6051Z" fill="white"/>
<path d="M99.9987 14.527H105.303V28.17H99.9987V14.527ZM100.19 7.95636H105.088V12.2571H100.19V7.95636Z" fill="white"/>
<path d="M106.641 14.5272H109.174V11.9467C109.174 7.9088 111.181 6.64246 116.724 6.64246H118.731V10.3937H116.963C115.219 10.3937 114.454 10.776 114.454 12.2812V14.5511H118.731V18.1112H114.454V28.1941H109.174V18.1112H106.641V14.5272Z" fill="white"/>
<path d="M120.093 9.70087H125.373V14.5273H130.008V18.0874H125.373V23.1049C125.373 24.0368 125.923 24.443 127.404 24.443H129.387V28.1942H126.759C121.813 28.1942 120.093 26.9517 120.093 23.5589V9.70087Z" fill="white"/>
<path d="M148.693 14.527H153.997V28.17H148.693V14.527ZM148.86 7.95636H153.758V12.2571H148.86V7.95636Z" fill="white"/>
<path d="M170.03 24.2279V28.1702H163.005C157.175 28.1702 155.335 26.426 155.335 21.3368C155.335 16.2714 157.151 14.5272 163.005 14.5272H170.03V18.4696H162.933C160.998 18.4696 160.401 19.1864 160.401 21.3368C160.401 23.4872 160.998 24.2279 162.933 24.2279H170.03Z" fill="white"/>
<path d="M182.311 21.1217L187.376 14.5272H182L177.628 19.9987H176.672V6.64246H171.368V28.1941H176.672V22.6748H177.628L181.928 28.1941H185.512V25.4703L182.311 21.1217Z" fill="white"/>
<path d="M142.266 21.1217L147.474 28.1941H141.883L137.583 22.6748H136.651V28.1941H131.347V6.64246H136.651V19.9987H137.583L141.979 14.5511H147.355L142.266 21.1217Z" fill="white"/>
</g>
<defs>
<linearGradient id="paint0_linear_349_756" x1="9.99156" y1="7.30477" x2="40.5279" y2="32.6875" gradientUnits="userSpaceOnUse">
<stop offset="0.0595758" stop-color="#009DDE"/>
<stop offset="0.972" stop-color="#A1268C"/>
</linearGradient>
<clipPath id="clip0_349_756">
<rect width="218" height="38" fill="white"/>
</clipPath>
</defs>
</svg>
