<svg width="91" height="54" viewBox="0 0 91 54" fill="none" xmlns="http://www.w3.org/2000/svg">
<path d="M2.19933 53.2238C0.733109 53.2238 0 52.4907 0 51.0244V16.9348C0 15.4686 0.733109 14.7355 2.19933 14.7355H7.99089C9.45711 14.7355 10.1902 15.4686 10.1902 16.9348V19.0609H10.3368C11.4609 17.1303 12.8905 15.8107 14.6255 15.1021C16.3606 14.369 18.4499 14.0024 20.8936 14.0024C24.7058 14.0024 27.8582 15.1998 30.3507 17.5946C32.8433 19.9895 34.0896 24.3637 34.0896 30.7173V51.0244C34.0896 52.4907 33.3565 53.2238 31.8903 53.2238H26.0254C24.5592 53.2238 23.8261 52.4907 23.8261 51.0244V33.3565C23.8261 28.0292 23.4595 24.6692 22.7264 23.2762C21.9933 21.8833 20.4171 21.1869 17.9978 21.1869C15.432 21.1869 13.5014 22.1888 12.2063 24.1926C10.9111 26.172 10.2635 30.3019 10.2635 36.5822V51.0244C10.2635 52.4907 9.53042 53.2238 8.0642 53.2238H2.19933Z" fill="#1BB7FA"/>
<path fill-rule="evenodd" clip-rule="evenodd" d="M43.316 19.3175C40.1148 22.8608 38.5142 27.7482 38.5142 33.9796C38.5142 40.2111 40.1148 45.0985 43.316 48.6418C46.5417 52.1852 51.3314 53.9569 57.685 53.9569C64.0386 53.9569 68.816 52.1852 72.0173 48.6418C75.2429 45.0985 76.8558 40.2111 76.8558 33.9796C76.8558 27.7482 75.2429 22.8608 72.0173 19.3175C68.816 15.7741 64.0386 14.0024 57.685 14.0024C51.3314 14.0024 46.5417 15.7741 43.316 19.3175ZM49.3642 33.9797C49.3642 38.6227 50.0729 41.9217 51.4902 43.8767C52.932 45.8072 54.9969 46.7724 57.685 46.7724C60.3731 46.7724 62.4258 45.8072 63.8431 43.8767C65.2849 41.9217 66.0058 38.6227 66.0058 33.9797C66.0058 29.3367 65.2849 26.0499 63.8431 24.1194C62.4258 22.1644 60.3731 21.1869 57.685 21.1869C54.9969 21.1869 52.932 22.1644 51.4902 24.1194C50.0729 26.0499 49.3642 29.3367 49.3642 33.9797Z" fill="#1BB7FA"/>
<path d="M52.0772 8.90727C51.1975 10.3491 51.4541 11.0699 52.847 11.0699H56.5492C58.2353 11.0699 59.4694 10.6179 60.2514 9.71369L66.2995 2.78581C67.5703 1.34403 67.3015 0.623138 65.4931 0.623138H59.9215C58.0154 0.623138 56.7202 1.19741 56.036 2.34595L52.0772 8.90727Z" fill="#F226EA"/>
<path d="M82.9357 53.2237C81.4694 53.2237 80.7363 52.4906 80.7363 51.0244V16.9348C80.7363 15.4686 81.4694 14.7355 82.9357 14.7355H88.8005C90.2667 14.7355 90.9999 15.4686 90.9999 16.9348V51.0244C90.9999 52.4906 90.2667 53.2237 88.8005 53.2237H82.9357ZM82.9357 53.2237C81.4694 53.2237 80.7363 52.4906 80.7363 51.0244V16.9348C80.7363 15.4686 81.4694 14.7355 82.9357 14.7355H88.8005C90.2667 14.7355 90.9999 15.4686 90.9999 16.9348V51.0244C90.9999 52.4906 90.2667 53.2237 88.8005 53.2237H82.9357Z" fill="#1BB7FA"/>
<path d="M80.7363 6.89123C80.7363 8.35745 81.4694 9.09056 82.9357 9.09056H88.8005C90.2667 9.09056 90.9999 8.35745 90.9999 6.89123V2.19933C90.9999 0.733109 90.2667 0 88.8005 0H82.9357C81.4694 0 80.7363 0.733109 80.7363 2.19933V6.89123Z" fill="#1BB7FA"/>
</svg>
